<svg width="16" height="16" viewBox="0 0 16 16" xmlns="http://www.w3.org/2000/svg"
    xmlns:xlink="http://www.w3.org/1999/xlink">
    <path d="M13.73 2.413a2 2 0 0 1 .216 1.107l-.84 8.968a2.2 2.2 0 0 1-3.512 1.554l-1.77-1.33a.133.133 0 0 0-.206.06l-.305.81a1.364 1.364 0 0 1-2.566-.037l-.906-2.63a1.067 1.067 0 0 0-.564-.622l-1.598-.73a1.733 1.733 0 0 1-.076-3.116l9.43-4.889a2 2 0 0 1 2.697.855zm-2.083.329L2.217 7.63a.4.4 0 0 0 .017.719l1.597.73a2.4 2.4 0 0 1 1.271 1.401l.238.69c0-.917.313-1.803.886-2.514l.292-.362-.401.29a.667.667 0 0 1-.878-.086l-.053-.065a.667.667 0 0 1 .15-.93l4.019-2.9a.733.733 0 0 1 1 1.056l-3.09 3.834a2.667 2.667 0 0 0-.591 1.673v.647a1.467 1.467 0 0 1 1.95-.168l1.77 1.33a.867.867 0 0 0 1.384-.612l.84-8.968a.667.667 0 0 0-.97-.654z" fill="#fff" fill-rule="nonzero" opacity=".7"/>
</svg>