<svg aria-hidden="true" xmlns="http://www.w3.org/2000/svg" xmlns:xlink="http://www.w3.org/1999/xlink">
    <defs>
        <symbol id="icon-docs" viewBox="0 0 24 24">
            <title>Docs Icon</title>
            <path d="M14 1c.043 0 .085.003.126.008L14 1a1 1 0 0 1 .25.031l.03.009c.03.009.061.02.091.031l.027.012a.914.914 0 0 1 .227.137l.082.073 6 6c.03.03.057.06.082.093l-.082-.093a1 1 0 0 1 .21.309l.012.027c.012.03.022.06.031.091l.008.03a.921.921 0 0 1 .024.124L21 8v12a3 3 0 0 1-3 3H6a3 3 0 0 1-3-3V4a3 3 0 0 1 3-3h8zm-1 2H6a1 1 0 0 0-1 1v16a1 1 0 0 0 1 1h12a1 1 0 0 0 1-1V9h-5a1 1 0 0 1-1-1V3zm3 13a1 1 0 0 1 0 2H8a1 1 0 0 1 0-2h8zm0-4a1 1 0 0 1 0 2H8a1 1 0 0 1 0-2h8zm-6-4a1 1 0 0 1 0 2H8a1 1 0 1 1 0-2h2zm5-3.585V7h2.585L15 4.415z" />
        </symbol>
        <symbol id="icon-telegram" viewBox="0 0 16 16">
            <title>Telegram</title>
            <path d="M13.73 2.413a2 2 0 0 1 .216 1.107l-.84 8.968a2.2 2.2 0 0 1-3.512 1.554l-1.77-1.33a.133.133 0 0 0-.206.06l-.305.81a1.364 1.364 0 0 1-2.566-.037l-.906-2.63a1.067 1.067 0 0 0-.564-.622l-1.598-.73a1.733 1.733 0 0 1-.076-3.116l9.43-4.889a2 2 0 0 1 2.697.855zm-2.083.329L2.217 7.63a.4.4 0 0 0 .017.719l1.597.73a2.4 2.4 0 0 1 1.271 1.401l.238.69c0-.917.313-1.803.886-2.514l.292-.362-.401.29a.667.667 0 0 1-.878-.086l-.053-.065a.667.667 0 0 1 .15-.93l4.019-2.9a.733.733 0 0 1 1 1.056l-3.09 3.834a2.667 2.667 0 0 0-.591 1.673v.647a1.467 1.467 0 0 1 1.95-.168l1.77 1.33a.867.867 0 0 0 1.384-.612l.84-8.968a.667.667 0 0 0-.97-.654z" fill="#fff" fill-rule="nonzero" opacity=".7"/>
        </symbol>
        <symbol id="icon-discord" viewBox="0 0 16 16">
            <title>Discord</title>
            <path xmlns="http://www.w3.org/2000/svg" d="m10.107 2.693 1.666.343a2.664 2.664 0 0 1 2.078 2.1l.958 4.931a2.703 2.703 0 0 1-1.233 2.816l-1.197.739a1.73 1.73 0 0 1-2.514-.824l-.025-.07-.111.02c-1.363.215-2.58.215-3.944 0l-.112-.02-.024.07a1.731 1.731 0 0 1-2.416.88l-.097-.056-1.19-.734a2.696 2.696 0 0 1-1.224-2.834l.91-4.451A3.076 3.076 0 0 1 3.74 3.28l1.672-.515a1.184 1.184 0 0 1 1.475.767l.01.034a10.06 10.06 0 0 1 1.495-.017l.237.019.027-.08a1.278 1.278 0 0 1 1.452-.795zm-.205 1.32v.022c-.052.566-.581.969-1.143.89a8.13 8.13 0 0 0-1.96-.007 1.055 1.055 0 0 1-1.153-.75l-.018-.076-1.496.462A1.743 1.743 0 0 0 2.97 5.747l-.03.123-.911 4.451c-.115.56.132 1.132.619 1.433l1.189.733c.236.146.544.01.597-.261.112-.578.67-.952 1.246-.848 1.463.264 2.693.264 4.156 0a1.073 1.073 0 0 1 1.246.848.396.396 0 0 0 .597.261l1.198-.739c.484-.299.733-.867.625-1.426l-.96-4.93a1.33 1.33 0 0 0-1.037-1.05l-1.602-.33zm.144 2.326c1.137 0 1.81 1.008 1.81 2.19s-.673 2.19-1.81 2.19-1.81-1.008-1.81-2.19.673-2.19 1.81-2.19zm-4.573 0c1.048 0 1.81 1.015 1.81 2.19s-.762 2.19-1.81 2.19-1.81-1.015-1.81-2.19.762-2.19 1.81-2.19zm4.573 1.333c-.26 0-.476.325-.476.857 0 .533.216.857.476.857s.476-.324.476-.857c0-.532-.217-.857-.476-.857zm-4.573 0c-.215 0-.476.349-.476.857s.261.857.476.857c.214 0 .476-.349.476-.857s-.262-.857-.476-.857z" fill="#fff" fill-rule="nonzero" opacity=".77"/>
        </symbol>
        <symbol id="icon-x" viewBox="0 0 16 16">
            <title>X</title>
            <path xmlns="http://www.w3.org/2000/svg" d="M13.828 1.333a.557.557 0 0 1 .419.924L9.694 7.46l5.093 6.733a1 1 0 0 1-.797 1.603h-2.433a1 1 0 0 1-.795-.393L7.196 10.74l-3.617 4.132a2.705 2.705 0 0 1-2.036.924.557.557 0 0 1-.419-.924L6.05 9.243l-4.82-6.302a1 1 0 0 1 .795-1.608h2.541a1 1 0 0 1 .798.397l3.195 4.225 3.235-3.698a2.703 2.703 0 0 1 2.035-.924zM11.74 14.327h1.36L4.323 2.725H2.865l8.875 11.602z" fill="#fff" fill-rule="evenodd" opacity=".7"/>
        </symbol>
        <symbol id="icon-mirror" viewBox="0 0 144 185">
            <title>Mirror</title>
            <defs>
                <linearGradient gradientUnits="userSpaceOnUse" id="mlinear" x1="18.435" x2="143.747" y1="10.6666" y2="209.447">
                <stop offset="0.265625" stop-color="#fff"></stop>
                <stop offset="0.734375" stop-color="#000"></stop>
                </linearGradient>
            </defs>
            <path
                d="M0 71.6129C0 32.0622 32.0622 0 71.6129 0C111.164 0 143.226 32.0622 143.226 71.6129V174.118C143.226 180.128 138.354 185 132.343 185H10.8824C4.87222 185 0 180.128 0 174.118V71.6129Z"
                fill="url(#mlinear)"></path>
            <path clip-rule="evenodd"
                d="M134.717 176.111V71.8216C134.717 36.8684 106.465 8.53326 71.6129 8.53326C36.7613 8.53326 8.50846 36.8684 8.50846 71.8216V176.111C8.50846 176.308 8.66719 176.467 8.86298 176.467H134.363C134.559 176.467 134.717 176.308 134.717 176.111ZM71.6129 0C32.0622 0 0 32.1556 0 71.8216V176.111C0 181.02 3.96809 185 8.86298 185H134.363C139.258 185 143.226 181.02 143.226 176.111V71.8216C143.226 32.1556 111.164 0 71.6129 0Z"
                fill="#000" fill-rule="evenodd"></path>
        </symbol>
        <symbol id="icon-info" viewBox="0 0 12 12">
            <title>Info Icon</title>
            <path d="M6 .5a5.5 5.5 0 1 1 0 11 5.5 5.5 0 0 1 0-11zm0 1a4.5 4.5 0 1 0 0 9 4.5 4.5 0 0 0 0-9zm-.266 6.613c.387 0 .675.297.675.675 0 .387-.288.693-.675.693a.688.688 0 0 1-.693-.693c0-.369.297-.675.693-.675zm.27-5.328c1.134 0 1.872.63 1.872 1.692 0 .716-.363 1.117-.746 1.476l-.254.236c-.333.314-.62.643-.62 1.177v.027c0 .108-.063.171-.171.171h-.72c-.108 0-.171-.063-.171-.171v-.171c0-1.503 1.485-1.728 1.485-2.637 0-.477-.288-.774-.882-.774-.387 0-.702.099-.936.225-.099.054-.18.036-.225-.072l-.279-.585c-.045-.09-.027-.171.072-.225.513-.252.99-.369 1.575-.369z" fill="#000" fill-rule="nonzero" opacity=".9"/>
        </symbol>
        <symbol id="icon-select-arrow" viewBox="0 0 24 24">
            <title>Select Arrow Icon</title>
            <path d="M17.697 7.288a1 1 0 0 1-1.414 1.414l-4.287-4.289-4.289 4.289a1 1 0 0 1-1.32.083l-.094-.083a1 1 0 0 1 0-1.414l4.995-4.995a1 1 0 0 1 1.414 0l4.995 4.995zm-11.404 9.42a1 1 0 0 1 1.414-1.415l4.287 4.289 4.289-4.29a1 1 0 0 1 1.32-.082l.094.083a1 1 0 0 1 0 1.414l-4.995 4.995a1 1 0 0 1-1.414 0l-4.995-4.995z" fill="#000" fill-rule="nonzero" opacity=".5"/>
        </symbol>
        <symbol id="icon-select-up" viewBox="0 0 24 24">
            <title>Select Arrow Up Icon</title>
            <path style="transform-origin: center;transform: rotate(180)" d="M21.657 8.754a1 1 0 1 0-1.314-1.508l-8.499 7.417-8.173-7.404A1 1 0 0 0 2.35 7.24l-.09.088a1 1 0 0 0 .07 1.412l8.83 8a1 1 0 0 0 1.329.013l9.17-8z" fillRule="nonzero" />
        </symbol>
        <symbol id="icon-select-bottom" viewBox="0 0 24 24">
            <title>Select Arrow Bottom Icon</title>
            <path d="M21.657 8.754a1 1 0 1 0-1.314-1.508l-8.499 7.417-8.173-7.404A1 1 0 0 0 2.35 7.24l-.09.088a1 1 0 0 0 .07 1.412l8.83 8a1 1 0 0 0 1.329.013l9.17-8z" fillRule="nonzero" />
        </symbol>
        <symbol id="icon-nav-menu" viewBox="0 0 16 16">
            <title>Nav Menu Icon</title>
            <path fill="currentColor" fillRule="nonzero" d="M3.333 9.333a1.333 1.333 0 1 0 0-2.666 1.333 1.333 0 0 0 0 2.666zm4.667 0a1.333 1.333 0 1 0 0-2.666 1.333 1.333 0 0 0 0 2.666zm4.667 0a1.333 1.333 0 1 0 0-2.666 1.333 1.333 0 0 0 0 2.666z" fill-rule="evenodd"/>
        </symbol>
        <symbol id="icon-nav-close" viewBox="0 0 24 24">
            <title>Nav Close Icon</title>
            <path fill="currentColor" fillRule="nonzero" d="M17.093927,6.1025895 C17.3182992,5.94701549 17.6291667,5.96830557 17.8299405,6.16699564 C18.0558109,6.39052197 18.0568114,6.75392528 17.8321751,6.97867965 L17.8321751,6.97867965 L12.813,12 L17.8321751,17.0213203 C18.0568114,17.2460747 18.0558109,17.609478 17.8299405,17.8330044 C17.6291667,18.0316944 17.3182992,18.0529845 17.093927,17.8974105 L17.0142258,17.8307808 L12,12.813 L6.98577421,17.8307808 L6.90607305,17.8974105 C6.6817008,18.0529845 6.37083327,18.0316944 6.17005953,17.8330044 C5.94418907,17.609478 5.94318859,17.2460747 6.16782491,17.0213203 L6.16782491,17.0213203 L11.186,12 L6.16782491,6.97867965 C5.94318859,6.75392528 5.94418907,6.39052197 6.17005953,6.16699564 C6.37083327,5.96830557 6.6817008,5.94701549 6.90607305,6.1025895 L6.98577421,6.16921922 L12,11.186 L17.0142258,6.16921922 Z" />
        </symbol>
    </defs>
</svg>
