<svg width="16" height="16" viewBox="0 0 16 16" xmlns="http://www.w3.org/2000/svg"
    xmlns:xlink="http://www.w3.org/1999/xlink">
    <path xmlns="http://www.w3.org/2000/svg" d="m10.107 2.693 1.666.343a2.664 2.664 0 0 1 2.078 2.1l.958 4.931a2.703 2.703 0 0 1-1.233 2.816l-1.197.739a1.73 1.73 0 0 1-2.514-.824l-.025-.07-.111.02c-1.363.215-2.58.215-3.944 0l-.112-.02-.024.07a1.731 1.731 0 0 1-2.416.88l-.097-.056-1.19-.734a2.696 2.696 0 0 1-1.224-2.834l.91-4.451A3.076 3.076 0 0 1 3.74 3.28l1.672-.515a1.184 1.184 0 0 1 1.475.767l.01.034a10.06 10.06 0 0 1 1.495-.017l.237.019.027-.08a1.278 1.278 0 0 1 1.452-.795zm-.205 1.32v.022c-.052.566-.581.969-1.143.89a8.13 8.13 0 0 0-1.96-.007 1.055 1.055 0 0 1-1.153-.75l-.018-.076-1.496.462A1.743 1.743 0 0 0 2.97 5.747l-.03.123-.911 4.451c-.115.56.132 1.132.619 1.433l1.189.733c.236.146.544.01.597-.261.112-.578.67-.952 1.246-.848 1.463.264 2.693.264 4.156 0a1.073 1.073 0 0 1 1.246.848.396.396 0 0 0 .597.261l1.198-.739c.484-.299.733-.867.625-1.426l-.96-4.93a1.33 1.33 0 0 0-1.037-1.05l-1.602-.33zm.144 2.326c1.137 0 1.81 1.008 1.81 2.19s-.673 2.19-1.81 2.19-1.81-1.008-1.81-2.19.673-2.19 1.81-2.19zm-4.573 0c1.048 0 1.81 1.015 1.81 2.19s-.762 2.19-1.81 2.19-1.81-1.015-1.81-2.19.762-2.19 1.81-2.19zm4.573 1.333c-.26 0-.476.325-.476.857 0 .533.216.857.476.857s.476-.324.476-.857c0-.532-.217-.857-.476-.857zm-4.573 0c-.215 0-.476.349-.476.857s.261.857.476.857c.214 0 .476-.349.476-.857s-.262-.857-.476-.857z" fill="#fff" fill-rule="nonzero" opacity=".77"/>
</svg>