<svg width="32" height="32" viewBox="0 0 32 32" xmlns="http://www.w3.org/2000/svg">
    <g fill-rule="nonzero" fill="none">
        <path d="M31.517 19.87C29.38 28.442 20.7 33.658 12.127 31.521 3.557 29.384-1.66 20.702.479 12.131 2.615 3.56 11.297-1.659 19.866.48c8.572 2.137 13.788 10.82 11.651 19.392z" fill="#F7931A"/>
        <path d="M23.053 13.72c.319-2.129-1.302-3.273-3.519-4.037l.72-2.884-1.757-.438-.7 2.809a72.74 72.74 0 0 0-1.406-.331l.705-2.827-1.755-.438-.72 2.883a58.031 58.031 0 0 1-1.12-.263l.002-.01-2.422-.604-.467 1.876s1.303.298 1.276.317c.71.177.84.648.818 1.02l-.82 3.287c.05.012.113.03.183.058l-.185-.046-1.149 4.603c-.086.216-.307.54-.804.417.018.026-1.276-.318-1.276-.318l-.872 2.01 2.285.57c.425.106.842.217 1.252.322l-.727 2.917 1.754.438.72-2.886c.478.13.943.25 1.399.363L13.75 25.4l1.756.438.727-2.912c2.994.567 5.245.338 6.192-2.37.764-2.18-.038-3.438-1.613-4.258 1.148-.264 2.012-1.019 2.242-2.577zm-4.011 5.625c-.543 2.18-4.214 1.002-5.404.707l.964-3.865c1.19.297 5.007.885 4.44 3.158zm.543-5.656c-.495 1.983-3.55.975-4.541.728l.874-3.505c.99.247 4.183.708 3.667 2.777z" fill="#FFF"/>
    </g>
</svg>
